<?xml version="1.0" encoding="UTF-8" standalone="no"?>
<!DOCTYPE svg PUBLIC "-//W3C//DTD SVG 1.1//EN"
 "http://www.w3.org/Graphics/SVG/1.1/DTD/svg11.dtd">
<!-- Generated by graphviz version 2.40.1 (20161225.0304)
 -->
<!-- Title: %3 Pages: 1 -->
<svg width="394pt" height="479pt"
 viewBox="0.00 0.00 393.97 479.00" xmlns="http://www.w3.org/2000/svg" xmlns:xlink="http://www.w3.org/1999/xlink">
<g id="graph0" class="graph" transform="scale(1 1) rotate(0) translate(4 475)">
<title>%3</title>
<polygon fill="#333333" stroke="transparent" points="-4,4 -4,-475 389.9678,-475 389.9678,4 -4,4"/>
<text text-anchor="middle" x="192.9839" y="-9.2" font-family="Times,serif" font-size="16.00" fill="#ffffff">Network Map</text>
<!-- R4 -->
<g id="node1" class="node">
<title>R4</title>
<polygon fill="#006699" stroke="#006699" points="155.9678,-471 79.9678,-471 79.9678,-398 155.9678,-398 155.9678,-471"/>
<text text-anchor="middle" x="117.9678" y="-430.8" font-family="Helvetica,sans-Serif" font-size="14.00" fill="#ffffff">R4</text>
</g>
<!-- R5 -->
<g id="node2" class="node">
<title>R5</title>
<polygon fill="#006699" stroke="#006699" points="278.9678,-471 202.9678,-471 202.9678,-398 278.9678,-398 278.9678,-471"/>
<text text-anchor="middle" x="240.9678" y="-430.8" font-family="Helvetica,sans-Serif" font-size="14.00" fill="#ffffff">R5</text>
</g>
<!-- R6 -->
<g id="node3" class="node">
<title>R6</title>
<polygon fill="#006699" stroke="#006699" points="93.9678,-347 17.9678,-347 17.9678,-274 93.9678,-274 93.9678,-347"/>
<text text-anchor="middle" x="55.9678" y="-306.8" font-family="Helvetica,sans-Serif" font-size="14.00" fill="#ffffff">R6</text>
</g>
<!-- R1 -->
<g id="node4" class="node">
<title>R1</title>
<polygon fill="#006699" stroke="#006699" points="92.9678,-99 16.9678,-99 16.9678,-26 92.9678,-26 92.9678,-99"/>
<text text-anchor="middle" x="54.9678" y="-58.8" font-family="Helvetica,sans-Serif" font-size="14.00" fill="#ffffff">R1</text>
</g>
<!-- SW1 -->
<g id="node7" class="node">
<title>SW1</title>
<polygon fill="#006699" stroke="#006699" points="161.4678,-223 72.4678,-223 72.4678,-150 161.4678,-150 161.4678,-223"/>
<text text-anchor="middle" x="116.9678" y="-182.8" font-family="Helvetica,sans-Serif" font-size="14.00" fill="#ffffff">SW1</text>
</g>
<!-- R1&#45;&#45;SW1 -->
<g id="edge5" class="edge">
<title>R1&#45;&#45;SW1</title>
<path fill="none" stroke="#00ff00" stroke-dasharray="5,2" d="M50,-99.088C49.9349,-110.0829 51.36,-121.8996 55.9678,-132 59.7991,-140.3983 65.6174,-148.0453 72.1667,-154.7812"/>
<text text-anchor="middle" x="105.9678" y="-120.8" font-family="Courier,monospace" font-size="14.00" fill="#ffffff"> &#160;&#160;&#160;&#160;&#160;&#160;&#160;&#160;&#160;&#160;&#160;</text>
<text text-anchor="middle" x="47.1667" y="-143.5812" font-family="Courier,monospace" font-size="14.00" fill="#ffffff">Eth0/1</text>
<text text-anchor="middle" x="25" y="-102.888" font-family="Courier,monospace" font-size="14.00" fill="#ffffff">Eth0/0</text>
</g>
<!-- R2 -->
<g id="node5" class="node">
<title>R2</title>
<polygon fill="#006699" stroke="#006699" points="276.9678,-99 200.9678,-99 200.9678,-26 276.9678,-26 276.9678,-99"/>
<text text-anchor="middle" x="238.9678" y="-58.8" font-family="Helvetica,sans-Serif" font-size="14.00" fill="#ffffff">R2</text>
</g>
<!-- R2&#45;&#45;SW1 -->
<g id="edge4" class="edge">
<title>R2&#45;&#45;SW1</title>
<path fill="none" stroke="#00ff00" stroke-dasharray="5,2" d="M200.7876,-93.1724C192.0468,-100.6916 182.9768,-108.9109 174.9678,-117 164.9058,-127.1627 154.6685,-138.8823 145.6519,-149.7677"/>
<text text-anchor="middle" x="224.9678" y="-120.8" font-family="Courier,monospace" font-size="14.00" fill="#ffffff"> &#160;&#160;&#160;&#160;&#160;&#160;&#160;&#160;&#160;&#160;&#160;</text>
<text text-anchor="middle" x="120.6519" y="-138.5677" font-family="Courier,monospace" font-size="14.00" fill="#ffffff">Eth0/2</text>
<text text-anchor="middle" x="175.7876" y="-81.9724" font-family="Courier,monospace" font-size="14.00" fill="#ffffff">Eth0/0</text>
</g>
<!-- SW2 -->
<g id="node8" class="node">
<title>SW2</title>
<polygon fill="#006699" stroke="#006699" points="345.4678,-223 256.4678,-223 256.4678,-150 345.4678,-150 345.4678,-223"/>
<text text-anchor="middle" x="300.9678" y="-182.8" font-family="Helvetica,sans-Serif" font-size="14.00" fill="#ffffff">SW2</text>
</g>
<!-- R2&#45;&#45;SW2 -->
<g id="edge3" class="edge">
<title>R2&#45;&#45;SW2</title>
<path fill="none" stroke="#00ff00" stroke-dasharray="5,2" d="M268.411,-99.2843C272.2758,-105.0244 275.9389,-111.035 278.9678,-117 284.1823,-127.269 288.4694,-139.0192 291.8297,-149.9001"/>
<text text-anchor="middle" x="335.9678" y="-120.8" font-family="Courier,monospace" font-size="14.00" fill="#ffffff"> &#160;&#160;&#160;&#160;&#160;&#160;&#160;&#160;&#160;&#160;&#160;</text>
<text text-anchor="middle" x="262.8297" y="-138.7001" font-family="Courier,monospace" font-size="14.00" fill="#ffffff">Eth0/11</text>
<text text-anchor="middle" x="243.411" y="-103.0843" font-family="Courier,monospace" font-size="14.00" fill="#ffffff">Eth0/1</text>
</g>
<!-- R3 -->
<g id="node6" class="node">
<title>R3</title>
<polygon fill="#006699" stroke="#006699" points="216.9678,-347 140.9678,-347 140.9678,-274 216.9678,-274 216.9678,-347"/>
<text text-anchor="middle" x="178.9678" y="-306.8" font-family="Helvetica,sans-Serif" font-size="14.00" fill="#ffffff">R3</text>
</g>
<!-- R3&#45;&#45;R4 -->
<g id="edge6" class="edge">
<title>R3&#45;&#45;R4</title>
<path fill="none" stroke="#00ff00" stroke-dasharray="5,2" d="M140.6928,-336.6558C131.9611,-344.6538 123.8299,-354.2254 118.9678,-365 114.4015,-375.1193 112.9881,-386.9413 113.0512,-397.9353"/>
<text text-anchor="middle" x="168.9678" y="-368.8" font-family="Courier,monospace" font-size="14.00" fill="#ffffff"> &#160;&#160;&#160;&#160;&#160;&#160;&#160;&#160;&#160;&#160;&#160;</text>
<text text-anchor="middle" x="88.0512" y="-386.7353" font-family="Courier,monospace" font-size="14.00" fill="#ffffff">Eth0/0</text>
<text text-anchor="middle" x="115.6928" y="-340.4558" font-family="Courier,monospace" font-size="14.00" fill="#ffffff">Eth0/1</text>
</g>
<!-- R3&#45;&#45;R5 -->
<g id="edge2" class="edge">
<title>R3&#45;&#45;R5</title>
<path fill="none" stroke="#00ff00" stroke-dasharray="5,2" d="M208.411,-347.2843C212.2758,-353.0244 215.9389,-359.035 218.9678,-365 224.1823,-375.269 228.4694,-387.0192 231.8297,-397.9001"/>
<text text-anchor="middle" x="275.9678" y="-368.8" font-family="Courier,monospace" font-size="14.00" fill="#ffffff"> &#160;&#160;&#160;&#160;&#160;&#160;&#160;&#160;&#160;&#160;&#160;</text>
<text text-anchor="middle" x="206.8297" y="-386.7001" font-family="Courier,monospace" font-size="14.00" fill="#ffffff">Eth0/0</text>
<text text-anchor="middle" x="183.411" y="-351.0843" font-family="Courier,monospace" font-size="14.00" fill="#ffffff">Eth0/2</text>
</g>
<!-- SW1&#45;&#45;R6 -->
<g id="edge1" class="edge">
<title>SW1&#45;&#45;R6</title>
<path fill="none" stroke="#00ff00" stroke-dasharray="5,2" d="M72.2983,-218.9436C66.0998,-225.5148 60.6144,-232.919 56.9678,-241 52.4015,-251.1193 50.9881,-262.9413 51.0512,-273.9353"/>
<text text-anchor="middle" x="106.9678" y="-244.8" font-family="Courier,monospace" font-size="14.00" fill="#ffffff"> &#160;&#160;&#160;&#160;&#160;&#160;&#160;&#160;&#160;&#160;&#160;</text>
<text text-anchor="middle" x="26.0512" y="-262.7353" font-family="Courier,monospace" font-size="14.00" fill="#ffffff">Eth0/1</text>
<text text-anchor="middle" x="47.2983" y="-207.7436" font-family="Courier,monospace" font-size="14.00" fill="#ffffff">Eth0/5</text>
</g>
<!-- SW1&#45;&#45;R3 -->
<g id="edge7" class="edge">
<title>SW1&#45;&#45;R3</title>
<path fill="none" stroke="#00ff00" stroke-dasharray="5,2" d="M146.411,-223.2843C150.2758,-229.0244 153.9389,-235.035 156.9678,-241 162.1823,-251.269 166.4694,-263.0192 169.8297,-273.9001"/>
<text text-anchor="middle" x="213.9678" y="-244.8" font-family="Courier,monospace" font-size="14.00" fill="#ffffff"> &#160;&#160;&#160;&#160;&#160;&#160;&#160;&#160;&#160;&#160;&#160;</text>
<text text-anchor="middle" x="144.8297" y="-262.7001" font-family="Courier,monospace" font-size="14.00" fill="#ffffff">Eth0/0</text>
<text text-anchor="middle" x="121.411" y="-227.0843" font-family="Courier,monospace" font-size="14.00" fill="#ffffff">Eth0/3</text>
</g>
</g>
</svg>
